<?xml version="1.0" encoding="UTF-8"?>
<svg id="a" data-name="Layer 1" xmlns="http://www.w3.org/2000/svg" width="3in" height=".81in" viewBox="0 0 216 58.329">
  <g>
    <polygon points="26.323 56.758 26.305 56.758 24.882 51.956 23.696 51.959 22.301 56.77 22.283 56.77 20.941 51.967 19.719 51.97 21.707 58.296 22.867 58.293 24.271 53.482 24.289 53.482 25.72 58.285 26.879 58.282 28.833 51.945 27.647 51.948 26.323 56.758" fill="#fff"/>
    <polygon points="34.439 51.929 34.446 54.55 31.441 54.559 31.434 51.938 30.355 51.941 30.372 58.272 31.451 58.269 31.444 55.558 34.449 55.549 34.456 58.26 35.536 58.258 35.518 51.926 34.439 51.929" fill="#fff"/>
    <path d="M39.392,51.915l-2.435,6.339,1.141-.003.452-1.224,2.836-.008.458,1.221,1.177-.004-2.479-6.324-1.15.003ZM38.904,56.046l1.044-2.795h.018l1.06,2.788-2.122.006Z" fill="#fff"/>
    <polygon points="48.483 51.89 43.73 51.903 43.733 52.928 45.569 52.924 45.584 58.23 46.663 58.227 46.649 52.92 48.486 52.915 48.483 51.89" fill="#fff"/>
    <polygon points="49.482 54.17 50.356 54.168 51.126 51.883 50.02 51.886 49.482 54.17" fill="#fff"/>
    <path d="M53.763,53.588c-.002-.562.452-.875,1.192-.877.811-.002,1.232.486,1.243,1.11l1.051-.198c-.11-1.088-.897-1.888-2.297-1.884-1.409.004-2.263.871-2.26,1.879.007,2.533,3.49,1.31,3.494,2.853.002.571-.497.884-1.362.886-.856.002-1.312-.45-1.359-1.129l-1.051.218c.11.962.781,1.888,2.359,1.884,1.516-.004,2.512-.756,2.509-1.906-.007-2.533-3.517-1.444-3.521-2.835Z" fill="#fff"/>
    <polygon points="66.31 51.84 66.323 56.397 63.234 51.849 62.137 51.852 62.154 58.184 63.216 58.18 63.203 53.632 66.283 58.172 67.389 58.168 67.372 51.837 66.31 51.84" fill="#fff"/>
    <polygon points="70.636 57.161 70.631 55.449 73.851 55.44 73.848 54.441 70.629 54.45 70.624 52.827 73.995 52.818 73.992 51.819 69.543 51.832 69.56 58.163 74.01 58.15 74.007 57.151 70.636 57.161" fill="#fff"/>
    <polygon points="81.193 51.799 79.864 51.802 78.211 54.054 76.538 51.812 75.182 51.816 77.572 54.921 75.11 58.147 76.475 58.143 78.216 55.784 79.962 58.133 81.326 58.129 78.847 54.917 81.193 51.799" fill="#fff"/>
    <polygon points="86.752 51.783 81.999 51.796 82.002 52.822 83.839 52.817 83.854 58.123 84.933 58.12 84.918 52.814 86.755 52.808 86.752 51.783" fill="#fff"/>
    <rect x="91.233" y="51.769" width="1.079" height="6.331" transform="translate(-.152 .254) rotate(-.159)" fill="#fff"/>
    <polygon points="98.646 51.75 98.658 56.307 95.569 51.758 94.472 51.761 94.489 58.093 95.551 58.09 95.538 53.542 98.618 58.082 99.724 58.078 99.707 51.747 98.646 51.75" fill="#fff"/>
    <polygon points="109.691 51.719 107.843 54.177 105.981 51.73 104.786 51.733 104.804 58.064 106.053 58.061 106.041 53.745 107.831 56.031 107.866 56.031 109.643 53.734 109.655 58.051 110.904 58.047 110.886 51.716 109.691 51.719" fill="#fff"/>
    <polygon points="114.214 56.843 114.21 55.425 117.331 55.416 117.328 54.221 114.207 54.23 114.203 52.901 117.458 52.892 117.454 51.698 112.897 51.71 112.915 58.042 117.472 58.029 117.469 56.834 114.214 56.843" fill="#fff"/>
    <path d="M121.516,51.686l-2.274.006.018,6.331,2.274-.006c2.158-.006,3.331-1.338,3.326-3.176-.005-1.837-1.186-3.162-3.344-3.156ZM121.494,56.823l-.936.002-.011-3.942.936-.002c1.382-.004,2,.78,2.003,1.965.003,1.186-.61,1.973-1.992,1.977Z" fill="#fff"/>
    <rect x="126.576" y="51.67" width="1.302" height="6.331" transform="translate(-.151 .353) rotate(-.159)" fill="#fff"/>
    <path d="M132.781,56.862c-1.159.003-1.812-.797-1.816-2.045s.645-2.053,1.805-2.057c.847-.002,1.49.442,1.679,1.235l1.337-.28c-.342-1.373-1.54-2.198-3.02-2.194-1.819.006-3.18,1.32-3.174,3.299.006,1.98,1.373,3.287,3.193,3.282,1.48-.004,2.673-.836,3.008-2.21l-1.338-.273c-.185.795-.826,1.242-1.673,1.244Z" fill="#fff"/>
    <path d="M139.12,51.637l-2.363,6.338,1.365-.003.381-1.09,2.604-.007.386,1.087,1.4-.004-2.398-6.325-1.373.004ZM138.917,55.713l.867-2.473h.018l.881,2.468-1.766.005Z" fill="#fff"/>
    <polygon points="145.514 56.756 145.5 51.62 144.198 51.623 144.215 57.954 148.326 57.943 148.323 56.748 145.514 56.756" fill="#fff"/>
    <path d="M154.431,51.594l-2.363,6.339,1.365-.004.381-1.089,2.604-.007.386,1.086,1.4-.004-2.398-6.324-1.373.003ZM154.228,55.67l.867-2.473h.018l.881,2.468-1.766.005Z" fill="#fff"/>
    <polygon points="160.825 56.713 160.821 55.295 163.942 55.286 163.939 54.091 160.818 54.1 160.814 52.771 164.069 52.763 164.066 51.568 159.509 51.58 159.526 57.912 164.083 57.899 164.08 56.704 160.825 56.713" fill="#fff"/>
    <path d="M167.026,53.297c-.001-.41.391-.714,1.006-.716.678-.002,1.071.399,1.1.952l1.257-.235c-.137-1.043-.96-1.88-2.342-1.876-1.462.004-2.307.89-2.304,1.959.007,2.479,3.357,1.489,3.361,2.737.001.464-.417.733-1.113.734-.82.002-1.187-.451-1.242-1.013l-1.257.262c.118.972.79,1.915,2.431,1.911,1.507-.004,2.504-.809,2.501-1.942-.007-2.515-3.393-1.507-3.397-2.774Z" fill="#fff"/>
    <polygon points="176.344 51.533 171.564 51.546 171.567 52.768 173.306 52.763 173.32 57.873 174.622 57.87 174.608 52.76 176.347 52.755 176.344 51.533" fill="#fff"/>
    <polygon points="181.679 51.518 181.687 54.042 179.038 54.049 179.031 51.525 177.729 51.529 177.747 57.861 179.049 57.857 179.041 55.244 181.69 55.237 181.697 57.85 182.999 57.846 182.982 51.515 181.679 51.518" fill="#fff"/>
    <polygon points="186.308 56.642 186.304 55.224 189.425 55.215 189.422 54.02 186.301 54.029 186.297 52.7 189.552 52.692 189.549 51.497 184.992 51.509 185.009 57.84 189.566 57.828 189.563 56.633 186.308 56.642" fill="#fff"/>
    <polygon points="195.492 51.48 190.712 51.493 190.715 52.715 192.454 52.71 192.468 57.819 193.77 57.816 193.756 52.707 195.495 52.702 195.492 51.48" fill="#fff"/>
    <rect x="196.885" y="51.474" width="1.302" height="6.331" transform="translate(-.151 .547) rotate(-.159)" fill="#fff"/>
    <path d="M203.091,56.666c-1.159.003-1.813-.797-1.816-2.045-.004-1.248.646-2.053,1.805-2.057.847-.002,1.49.442,1.679,1.235l1.337-.28c-.342-1.373-1.54-2.198-3.02-2.194-1.819.006-3.18,1.32-3.174,3.299.006,1.98,1.373,3.287,3.193,3.282,1.48-.004,2.673-.836,3.008-2.21l-1.338-.273c-.185.795-.826,1.242-1.673,1.244Z" fill="#fff"/>
    <path d="M208.908,53.181c-.001-.41.391-.715,1.006-.717.678-.002,1.071.399,1.1.952l1.257-.235c-.137-1.043-.959-1.88-2.342-1.876-1.462.004-2.307.89-2.304,1.959.007,2.479,3.357,1.49,3.361,2.738.001.464-.417.732-1.113.733-.82.002-1.187-.45-1.242-1.012l-1.257.261c.118.972.79,1.915,2.431,1.911,1.507-.005,2.504-.81,2.501-1.943-.007-2.515-3.393-1.507-3.397-2.773Z" fill="#fff"/>
  </g>
  <g>
    <path d="M144.546,14.079c-2.84,8.047-11.302,21.48-17.751,30.178h-2.012l-3.906-25.504c-.473-3.195-1.716-4.437-3.077-4.674l.059-.178h7.337l3.669,26.154c5.858-8.461,11.183-17.396,11.183-22.249,0-1.894-.769-3.195-2.545-3.728l.059-.178h6.923l.059.178Z" fill="#fff"/>
    <path d="M171.162,18.695l-3.787,17.693c-.414,1.894-.592,3.195-.592,4.141,0,1.657.887,2.426,2.189,2.841v.177c-2.545.119-5.325.888-7.988,1.953l-.119-.059,1.243-5.799,3.787-17.811c.236-1.065.354-2.071.354-2.9,0-3.077-1.479-5.088-4.615-5.088-8.344,0-13.492,10.888-13.492,19.231,0,6.035,2.9,9.408,6.154,9.408,2.485,0,5.149-1.834,6.983-5.858l.118.118c-2.071,5.858-6.332,8.758-10.296,8.758-4.674,0-8.225-3.847-8.225-10.592,0-9.527,7.338-21.775,18.876-21.775,2.899,0,5.089.947,6.45,2.071,1.538-.473,3.196-1.184,4.674-2.071l.119.059c-.888,1.834-1.302,3.254-1.835,5.503Z" fill="#fff"/>
    <path d="M180.456,34.553c-.296,1.42-.414,2.545-.414,3.551,0,3.55,1.894,5.089,4.497,5.089,1.894,0,3.728-1.124,5.089-3.373l.118.059c-1.42,3.668-4.438,5.621-7.515,5.621-3.373,0-6.687-1.834-6.687-6.864,0-1.005.118-2.189.415-3.432l4.437-20.592h-2.13l.118-.355c2.9-1.124,5.562-3.314,7.396-5.503l.178.118-1.065,5.03h8.343l-.178.71h-8.284l-4.32,19.941Z" fill="#fff"/>
    <path d="M213.515,36.979l.178.059c-2.604,5.799-7.811,8.461-12.13,8.461-7.101,0-10.178-5.325-10.178-11.657,0-9.29,6.923-20.71,17.219-20.71,4.438,0,7.337,2.367,7.396,6.272,0,5.74-5.799,9.409-12.663,9.409-2.426,0-4.792-.533-6.864-1.598-.178,1.183-.296,2.367-.296,3.55,0,6.509,2.958,11.362,8.817,11.362,2.781,0,6.154-1.599,8.521-5.149ZM196.592,26.683c1.598.769,3.432,1.184,5.207,1.184,5.503,0,10.828-3.551,10.828-9.527,0-2.958-1.597-4.497-4.615-4.497-5.858,0-10.119,6.213-11.421,12.84Z" fill="#fff"/>
    <path d="M26.713,18.117c1.295-2.431,4.427-4.808,9.458-4.822,7.461-.021,11.442,4.942,11.462,12.106l.053,19.301-7.044.02-.051-18.413c-.013-4.203-1.914-6.981-6.119-6.969-4.441.012-7.215,2.803-7.202,7.599l.05,17.821-7.045.019-.086-30.728,6.513-.018.012,4.085Z" fill="#fff"/>
    <path d="M60.189,18.023c1.296-2.431,4.427-4.808,9.46-4.822,7.459-.021,11.44,4.942,11.46,12.106l.055,19.301-7.046.019-.051-18.413c-.012-4.203-1.913-6.981-6.117-6.969-4.441.012-7.216,2.803-7.203,7.598l.05,17.821-7.044.02-.086-30.728,6.514-.018.01,4.085Z" fill="#fff"/>
    <path d="M85.43,29.26c-.025-8.644,6.112-16.121,15.881-16.148,9.829-.027,16.007,7.416,16.031,16.06.023,8.644-6.114,16.062-15.942,16.089-9.767.027-15.945-7.357-15.97-16ZM101.384,39.044c5.15-.014,8.929-3.932,8.913-9.853-.018-5.98-3.817-9.877-8.969-9.863-5.09.014-8.87,3.933-8.851,9.912.017,5.921,3.816,9.817,8.908,9.803Z" fill="#fff"/>
    <g>
      <path d="M0,14.403v.969c0,.202.164.367.367.367h2.744v8.374h3.476v1.542h-3.476v2.394h3.476v1.542h-3.476v2.394h3.476v1.542h-3.476v2.394h3.476v1.542h-3.476v4.204c0,.405.328.733.733.733h1.721v3.042h1.223v11.901h1.648v-11.901h1.223v-3.042h1.721c.405,0,.733-.328.733-.733V15.739h2.744c.202,0,.367-.164.367-.367v-.969c0-.202-.164-.367-.367-.367H.367c-.202,0-.367.164-.367.367Z" fill="#fff"/>
      <polygon points="3.964 10.244 11.259 10.244 11.259 1.3 13.287 1.3 13.287 0 11.259 0 3.964 0 1.937 0 1.937 1.3 3.964 1.3 3.964 10.244" fill="#fff"/>
    </g>
  </g>
</svg>