<svg xml:space="preserve" style="enable-background:new 0 0 283.5 126.2;" viewBox="0 0 283.5 126.2" y="0px" x="0px" xmlns:xlink="http://www.w3.org/1999/xlink" xmlns="http://www.w3.org/2000/svg" id="Layer_1" version="1.1">
<style type="text/css">
	.st0{fill:#3C2F55;}
</style>
<g>
	<g>
		<path d="M22.6,53.6h0.6l22.6,48.8h-7.3l-5.1-11.5H12.3l-5,11.5H0L22.6,53.6z M30.8,84.8l-8-17.9l-8,17.9H30.8z" class="st0"></path>
		<path d="M53.9,53.9h6.7v42.2h21.3v6.2h-28C53.9,102.3,53.9,53.9,53.9,53.9z" class="st0"></path>
		<path d="M109.9,53.6h0.6l22.6,48.8h-7.3l-5.1-11.5h-21l-5,11.5h-7.3L109.9,53.6L109.9,53.6L109.9,53.6z M118.1,84.8
			l-8-17.9l-8,17.9H118.1z" class="st0"></path>
		<path d="M138.6,98v-7.8c4.1,4.1,8.6,6.8,14.2,6.8s9.5-2.5,9.5-7.5s-4.2-6.6-9.9-9.8l-7.3-4.1
			c-4.4-2.5-6.6-6.1-6.6-10.5c0-7.2,6-12,14.4-12s8.8,1.9,11.9,4.3v7.3c-2.8-2.8-6.2-5.5-11.5-5.5s-8.3,2-8.3,5.6
			c0,3.6,2.2,4.4,6,6.5c6.1,3.3,11.8,6.2,14.2,8.9c2,2.2,3.5,5.3,3.5,9.4c0,7.8-6.4,13.7-16.2,13.7s-10.5-2.3-14-5.2L138.6,98
			L138.6,98z" class="st0"></path>
		<path d="M188.3,60.1h-14v-6.2h34.6v6.2h-14v42.2h-6.6L188.3,60.1L188.3,60.1L188.3,60.1z" class="st0"></path>
		<path d="M219.3,53.9h6.7v48.4h-6.7V53.9z" class="st0"></path>
		<path d="M248.5,69.1v33.2h-6.7V53.2h0.7l34.3,34.6V53.9h6.7v49.3h-0.6C282.9,103.2,248.5,69.1,248.5,69.1z" class="st0"></path>
	</g>
	<path d="M163.1,22.4l-3.2-5.5c-0.1-0.2-0.3-0.3-0.6-0.3h-6.4c-0.2,0-0.5,0.1-0.6,0.3l-3,5.2h-5.6l-3-5.2
		c-0.1-0.2-0.3-0.3-0.6-0.3h-6l-2.8-4.9l3-5.2c0.1-0.2,0.1-0.5,0-0.7l-3.2-5.5C131,0.1,130.8,0,130.5,0h-6.4c-0.2,0-0.5,0-0.6,0.3
		l-3.2,5.5c0,0.2,0,0.5,0,0.7l3.2,5.5c0,0.2,0.3,0.3,0.6,0.3h6l2.8,4.9l-3,5.2c-0.1,0.2-0.1,0.5,0,0.7l3.2,5.5
		c0.1,0.2,0.3,0.3,0.6,0.3h6.4c0.2,0,0.5-0.1,0.6-0.3l3-5.2h5.6l3,5.2c0.1,0.2,0.3,0.3,0.6,0.3h6.4c0.2,0,0.5-0.1,0.6-0.3l3.2-5.5
		C163.2,22.9,163.2,22.6,163.1,22.4L163.1,22.4L163.1,22.4z M121.7,6.1l2.8-4.9h5.6l2.8,4.9l-2.8,4.9h-5.6
		C124.5,11,121.7,6.1,121.7,6.1z M139.8,27.6h-5.6l-2.8-4.9l2.8-4.9h5.6l2.8,4.9L139.8,27.6z M158.9,27.6h-5.6l-2.8-4.9l2.8-4.9h5.6
		l2.8,4.9L158.9,27.6z" class="st0"></path>
</g>
</svg>
