<?xml version="1.0" encoding="UTF-8"?>
<svg width="173" height="33" viewBox="0 0 173 33" fill="none" xmlns="http://www.w3.org/2000/svg">
<g clip-path="url(#clip0_1153_12435)">
<path d="M53.3434 24.7075C53.0196 24.5607 52.957 24.459 52.957 23.9922C52.957 22.844 53.0417 21.5866 53.0637 21.2516C53.0858 20.9165 53.1447 20.7095 53.3066 20.7095C53.4686 20.7095 53.5164 20.8977 53.5164 21.0859C53.5353 21.4461 53.5971 21.8026 53.7004 22.1475C54.153 23.6986 55.3564 24.2633 56.6223 24.2633C58.4623 24.2633 59.3676 22.9833 59.3676 21.8765C59.3676 20.8525 59.0622 19.8699 57.362 18.526L56.4236 17.773C54.1678 15.9773 53.3913 14.5091 53.3913 12.815C53.3913 10.5148 55.2754 8.86216 58.1164 8.86216C59.0358 8.85012 59.9524 8.96922 60.8396 9.21603C61.0236 9.25368 61.123 9.32144 61.123 9.4645C61.123 9.73555 61.0457 10.3454 61.0457 11.9755C61.0457 12.4386 60.9794 12.6042 60.8175 12.6042C60.6556 12.6042 60.6078 12.4762 60.6078 12.2277C60.5706 11.7192 60.3846 11.2338 60.0742 10.8348C59.8148 10.4879 59.4752 10.2123 59.086 10.0329C58.6967 9.85352 58.2699 9.77592 57.8441 9.80708C56.3316 9.80708 55.4116 10.7068 55.4116 11.9642C55.4116 12.928 55.8826 13.6583 57.5754 14.9759L58.1532 15.4126C60.6041 17.3627 61.502 18.7594 61.502 20.7509C61.5136 21.4743 61.3434 22.1886 61.0077 22.8254C60.672 23.4622 60.182 24.0001 59.5847 24.3875C58.6025 24.9884 57.4717 25.2865 56.3279 25.2458C55.305 25.2874 54.2854 25.1011 53.3397 24.7" fill="#7A7F85"/>
<path d="M72.6294 22.9681C70.6274 21.1686 70.0938 18.827 70.0938 16.7979C70.0886 15.7258 70.2982 14.6639 70.7096 13.6778C71.121 12.6917 71.7255 11.8023 72.4858 11.0644C73.9578 9.68651 75.8972 8.85076 78.9516 8.85076C79.9365 8.84668 80.9205 8.91588 81.8956 9.05781C82.6721 9.16322 83.3308 9.35145 83.9454 9.41545C84.1662 9.41545 84.2471 9.53592 84.2471 9.66392C84.2471 9.79191 84.1846 10.0856 84.1441 10.8159C84.1036 11.5462 84.1441 12.653 84.0815 13.0747C84.0594 13.3909 84.0263 13.5528 83.835 13.5528C83.6436 13.5528 83.6326 13.3909 83.6326 13.0935C83.6027 12.3753 83.3204 11.6922 82.8377 11.1698C82.1606 10.4394 80.5671 9.87097 78.683 9.87097C76.8982 9.87097 75.739 10.3303 74.8337 11.1698C73.3617 12.5702 72.9569 14.5579 72.9569 16.5871C72.9569 21.5677 76.6553 24.0373 79.3932 24.0373C81.2332 24.0373 82.3372 23.8265 83.1394 22.8627C83.4689 22.4628 83.7054 21.9917 83.8313 21.4849C83.8938 21.1536 83.938 21.0708 84.0999 21.0708C84.2618 21.0708 84.2839 21.2138 84.2839 21.3832C84.198 22.3217 84.0467 23.2526 83.8313 24.169C83.811 24.308 83.7519 24.4381 83.6612 24.5436C83.5705 24.6491 83.4519 24.7256 83.3198 24.7639C82.4991 25.0989 80.9462 25.2495 79.6398 25.2495C76.8393 25.2495 74.4878 24.6208 72.6257 22.9644" fill="#7A7F85"/>
<path d="M93.9362 15.2091C93.9362 12.028 93.9362 11.4444 93.8994 10.7706C93.8626 10.0967 93.6529 9.70519 93.1966 9.59978C92.9562 9.53712 92.7086 9.50799 92.4606 9.51319C92.2545 9.51319 92.1367 9.47178 92.1367 9.30237C92.1367 9.13296 92.2913 9.13673 92.6225 9.13673C93.4026 9.13673 94.687 9.20072 95.2868 9.20072C95.791 9.20072 97.0017 9.13673 97.7782 9.13673C98.0468 9.13673 98.2051 9.17437 98.2051 9.30237C98.2051 9.43037 98.0799 9.51319 97.8775 9.51319C97.6712 9.51489 97.4654 9.53631 97.263 9.57719C96.711 9.6826 96.5527 10.0365 96.527 10.7706C96.4865 11.4369 96.4865 12.0242 96.4865 15.2091V18.8909C96.4865 20.9163 96.4865 22.5689 96.5674 23.4725C96.6263 24.0371 96.7735 24.4136 97.3807 24.4964C97.7272 24.5446 98.0762 24.571 98.4258 24.5755C98.6503 24.5755 98.7534 24.6433 98.7534 24.7449C98.7534 24.8465 98.5915 24.9557 98.3854 24.9557C97.0348 24.9557 95.7468 24.8917 95.1911 24.8917C94.7201 24.8917 93.4321 24.9557 92.6151 24.9557C92.3502 24.9557 92.2103 24.8917 92.2103 24.7449C92.2103 24.5981 92.2913 24.5755 92.5342 24.5755C92.7816 24.5774 93.0285 24.5508 93.2702 24.4964C93.6823 24.4098 93.8038 24.0597 93.87 23.4499C93.9657 22.5689 93.9657 20.9125 93.9657 18.8871L93.9362 15.2091Z" fill="#7A7F85"/>
<path d="M111.156 10.3079L108.109 10.3907C106.92 10.4322 106.431 10.5376 106.125 10.9969C105.971 11.2205 105.854 11.4685 105.779 11.731C105.735 11.8928 105.676 11.9832 105.555 11.9832C105.433 11.9832 105.367 11.8815 105.367 11.6481C105.367 11.3131 105.754 9.40818 105.801 9.23877C105.86 8.96395 105.923 8.8623 106.048 8.8623C106.331 8.97434 106.625 9.05756 106.924 9.11077C107.52 9.17477 108.3 9.21618 108.97 9.21618H117.066C117.727 9.22005 118.386 9.14934 119.031 9.00536C119.175 9.00536 119.189 9.12959 119.189 9.44206C119.189 9.88252 119.13 11.3244 119.13 11.8702C119.108 12.0811 119.072 12.2015 118.946 12.2015C118.821 12.2015 118.74 12.0999 118.722 11.7874L118.7 11.554C118.663 11.0119 118.111 10.4246 116.289 10.387L113.713 10.323V18.8913C113.713 20.8113 113.713 22.4639 113.816 23.3674C113.875 23.9547 114 24.414 114.611 24.4968C114.958 24.5452 115.307 24.5716 115.656 24.5759C115.877 24.5759 115.984 24.6437 115.984 24.7453C115.984 24.8469 115.818 24.9561 115.594 24.9561C114.24 24.9561 112.952 24.8921 112.381 24.8921C111.914 24.8921 110.619 24.9561 109.805 24.9561C109.54 24.9561 109.389 24.8921 109.389 24.7453C109.389 24.5985 109.478 24.5759 109.724 24.5759C109.972 24.5777 110.219 24.5512 110.46 24.4968C110.869 24.4102 110.994 23.951 111.056 23.3486C111.16 22.4639 111.16 20.8113 111.16 18.8913L111.156 10.3079Z" fill="#7A7F85"/>
<path d="M125.719 17.0465C125.719 13.4664 128.026 8.84717 134.183 8.84717C139.28 8.84717 142.448 11.8815 142.448 16.6701C142.448 21.4587 139.177 25.2497 133.984 25.2497C128.114 25.2497 125.741 20.7509 125.741 17.0465H125.719ZM139.589 17.4494C139.589 12.7549 136.95 9.85232 133.594 9.85232C131.242 9.85232 128.567 11.1888 128.567 16.399C128.567 20.7509 130.919 24.2031 134.823 24.2031C136.258 24.2031 139.574 23.4954 139.574 17.4494" fill="#7A7F85"/>
<path d="M153.205 22.1286C153.246 23.7586 153.511 24.3045 153.919 24.4513C154.262 24.5617 154.62 24.6114 154.979 24.5982C155.207 24.5982 155.347 24.6433 155.347 24.7676C155.347 24.8918 155.163 24.9784 154.876 24.9784C153.547 24.9784 152.727 24.9144 152.34 24.9144C152.156 24.9144 151.196 24.9784 150.132 24.9784C149.86 24.9784 149.68 24.9558 149.68 24.7676C149.68 24.6433 149.801 24.5982 150.004 24.5982C150.314 24.6052 150.625 24.571 150.927 24.4965C151.461 24.3309 151.538 23.721 151.56 21.9027L151.744 9.51327C151.744 9.0954 151.803 8.80176 152.009 8.80176C152.215 8.80176 152.421 9.07281 152.745 9.44928C152.995 9.72409 156.101 13.1311 159.089 16.1654C160.48 17.5922 163.248 20.6039 163.59 20.9352H163.697L163.494 11.5236C163.469 10.2474 163.288 9.85209 162.792 9.64127C162.44 9.5395 162.074 9.49753 161.71 9.51704C161.463 9.51704 161.382 9.45304 161.382 9.32881C161.382 9.20457 161.607 9.14058 161.912 9.14058C162.979 9.14058 163.958 9.20457 164.385 9.20457C164.613 9.20457 165.393 9.14058 166.391 9.14058C166.659 9.14058 166.865 9.1594 166.865 9.32881C166.865 9.49822 166.74 9.51704 166.497 9.51704C166.291 9.50881 166.084 9.53035 165.883 9.58104C165.312 9.74668 165.147 10.1871 165.125 11.3579L164.9 24.5643C164.9 25.0273 164.819 25.2118 164.635 25.2118C164.451 25.2118 164.168 24.9784 163.94 24.7487C162.655 23.4951 160.032 20.7545 157.904 18.6011C155.674 16.3423 153.404 13.7071 153.036 13.3306H152.973L153.205 22.1286Z" fill="#7A7F85"/>
<path d="M21.7541 0.67041C10.1584 0.67041 0.726562 7.82322 0.726562 16.6325C0.726562 25.4417 10.1621 32.6133 21.7541 32.6133C33.3461 32.6133 42.7743 25.4605 42.7743 16.6475C42.7743 7.83451 33.3424 0.67041 21.7541 0.67041ZM4.35136 16.6513C4.367 14.8978 4.87822 13.1863 5.82336 11.7234C9.96704 16.9939 21.353 16.4555 21.353 16.4555C21.353 16.4555 12.7454 15.4654 12.6939 10.8349C12.6571 7.36393 16.1237 5.05997 20.0539 4.52916C20.4219 4.47646 20.7899 4.43881 21.1248 4.40493C21.3346 4.40493 21.5443 4.40493 21.7541 4.40493C31.3478 4.3974 39.1605 9.89 39.1605 16.6513C39.1499 18.2639 38.7152 19.8439 37.9019 21.2253C33.5669 16.2673 22.6005 16.7793 22.6005 16.7793C22.6005 16.7793 31.2117 17.7619 31.2595 22.3886C31.3 25.8671 27.8298 28.1635 23.8995 28.7019C23.1893 28.796 22.5011 28.8638 21.8498 28.9014H21.7541C12.164 28.9052 4.35136 23.4088 4.35136 16.6513Z" fill="#003595"/>
<path d="M170.779 7.30707C171.233 7.32188 171.672 7.47308 172.042 7.74178C172.412 8.01048 172.696 8.38475 172.859 8.8178C173.022 9.25085 173.057 9.72347 172.959 10.1766C172.861 10.6297 172.634 11.0431 172.308 11.3653C171.981 11.6875 171.569 11.904 171.123 11.9879C170.677 12.0717 170.216 12.0192 169.799 11.8368C169.382 11.6544 169.027 11.3503 168.777 10.9625C168.528 10.5746 168.397 10.1203 168.398 9.6562C168.402 9.34264 168.466 9.03285 168.587 8.74471C168.708 8.45658 168.883 8.19579 169.103 7.97741C169.323 7.75902 169.583 7.58735 169.868 7.4723C170.154 7.35724 170.458 7.30109 170.765 7.30707H170.779ZM170.754 7.77765C170.266 7.78115 169.799 7.98281 169.456 8.33829C169.114 8.69376 168.923 9.17392 168.927 9.67314C168.93 10.1724 169.127 10.6498 169.475 11.0003C169.822 11.3508 170.291 11.5458 170.779 11.5423C171.017 11.5426 171.252 11.4934 171.471 11.3978C171.689 11.3021 171.887 11.162 172.05 10.9859C172.214 10.8098 172.341 10.6015 172.424 10.3735C172.507 10.1456 172.543 9.90278 172.531 9.65997C172.54 9.41667 172.501 9.17403 172.416 8.9465C172.332 8.71896 172.203 8.51119 172.038 8.33556C171.873 8.15992 171.676 8.02002 171.457 7.92417C171.238 7.82832 171.003 7.77849 170.765 7.77765H170.754ZM170.386 10.8722H169.852V8.53811C170.144 8.47874 170.441 8.44972 170.739 8.45152C171.016 8.42472 171.295 8.48935 171.534 8.63599C171.604 8.69779 171.661 8.77467 171.699 8.8612C171.737 8.94772 171.756 9.04177 171.755 9.13668C171.751 9.26919 171.704 9.39671 171.623 9.49948C171.541 9.60226 171.428 9.67455 171.302 9.70514V9.7315C171.417 9.77783 171.517 9.85644 171.591 9.95831C171.664 10.0602 171.708 10.1812 171.718 10.3075C171.74 10.5072 171.797 10.7011 171.887 10.8797H171.313C171.222 10.7055 171.16 10.5173 171.129 10.3225C171.085 10.0665 170.945 9.94608 170.654 9.94608H170.404L170.386 10.8722ZM170.386 9.55456H170.64C170.93 9.55456 171.17 9.45291 171.17 9.21198C171.17 8.97104 171.015 8.85434 170.676 8.85434C170.579 8.85124 170.481 8.86009 170.386 8.88069V9.55456Z" fill="#7A7F85"/>
</g>
<defs>
<clipPath id="clip0_1153_12435">
<rect width="173" height="33" fill="white"/>
</clipPath>
</defs>
</svg>
