<?xml version="1.0" encoding="UTF-8"?>
<svg xmlns="http://www.w3.org/2000/svg" width="306" height="228" viewBox="0 0 306 228" fill="none">
  <path d="M170.891 189.71H167.165V211.572H181.022V208.123H170.891V189.71Z" fill="black"></path>
  <path d="M202.397 189.71L193.93 211.571H197.871L199.442 207.352H209.233L210.804 211.571H214.868L206.37 189.71H202.397ZM200.673 203.967L204.305 194.33H204.368L208 203.967H200.673Z" fill="black"></path>
  <path d="M231.195 195.622C231.195 193.682 232.764 192.605 235.321 192.605C238.121 192.605 239.57 194.329 239.6 196.484H243.264C243.172 192.388 240.463 189.248 235.321 189.248C230.456 189.248 227.5 192.235 227.5 195.715C227.5 204.457 239.724 200.271 239.724 205.598C239.724 207.569 238.001 208.646 235.013 208.646C232.057 208.646 230.486 207.077 230.333 204.735H226.639C226.761 208.306 229.009 212.002 234.829 212.002C240.062 212.002 243.511 209.415 243.511 205.444C243.511 196.701 231.195 200.425 231.195 195.622Z" fill="black"></path>
  <path d="M258.017 211.572H273.382V208.123H261.745V202.211H272.86V198.764H261.745V193.159H273.382V189.71H258.017V211.572Z" fill="black"></path>
  <path d="M300.98 202.488C303.875 201.564 305.261 199.226 305.261 196.331C305.261 192.514 302.889 189.712 298.057 189.712H288.449V211.572H292.176V202.95H297.194L301.627 211.572H306L300.98 202.488ZM298.087 199.501H292.176V193.158H298.087C300.396 193.158 301.505 194.451 301.505 196.329C301.505 198.208 300.396 199.501 298.087 199.501Z" fill="black"></path>
  <path d="M170.739 172.348C172.454 172.348 174.155 172.321 175.862 172.177C201.859 169.991 212.951 154.566 212.951 139.991C212.951 138.649 212.88 137.357 212.747 136.114H259.367L265.21 149.21C271.584 163.939 269.043 169.281 261.746 171.384L261.791 172.031H303.942L303.896 171.384C298.453 169.927 294.816 166.528 285.423 145.649L244.59 54.8477H236.334L211.483 130.004C202.03 100.079 150.032 101.774 150.032 72.2708C150.032 60.6815 159.967 52.4026 173.709 52.4026C189.438 52.4026 199.869 64.3243 203.014 88.6633L203.677 88.4981L207.65 60.351C202.021 55.8801 189.769 49.7549 173.709 49.7549C151.191 49.7549 135.794 64.3243 135.794 80.7167C135.794 117.971 197.054 113.004 197.054 147.607C197.054 158.368 189.603 169.794 169.405 169.794H169.319C164.118 169.787 159.244 167.136 156.536 162.697C154.265 158.974 151.591 153.665 148.142 145.997L109.88 60.9143L107.309 55.196C115.504 35.8893 130.084 20.1188 145.284 20.1188C154.128 20.1188 161.424 22.3293 164.962 25.4248L165.847 25.2044L171.153 4.6432C168.058 1.76808 160.984 0 154.35 0C134.23 0 118.96 11.2002 103.703 55.1978L71.192 150.489L42.67 76.4218C38.6896 65.8098 39.1321 58.5136 49.5238 55.8606V55.1978H3.09529V55.8606C7.95884 56.5234 13.2648 60.9463 17.6877 71.5583L58.5898 172.156L61.2073 178.592C53.0119 197.899 41.069 207.309 25.8671 207.309C17.0231 207.309 9.72692 205.099 6.18898 202.003L5.30406 202.224L-0.00195312 222.785C3.09352 225.66 10.1676 227.428 16.801 227.428C36.9198 227.428 52.1768 216.151 67.432 172.154L79.6415 136.522H121.761L127.575 149.556C133.949 164.285 131.408 169.627 124.112 171.731L124.156 172.346C124.156 172.346 160.643 172.346 170.737 172.346L170.739 172.348ZM234.186 70.3855L257.526 132.545H213.64L234.186 70.3855ZM80.8854 132.894L99.659 78.1064L120.122 132.894H80.8854Z" fill="black"></path>
</svg>
