<?xml version="1.0" encoding="UTF-8"?> <svg xmlns="http://www.w3.org/2000/svg" id="Layer_1" data-name="Layer 1" viewBox="0 0 473.73 171.39"><defs><style>.cls-1{fill:#454343;}</style></defs><path class="cls-1" d="M440.42,490.51l8.34-17.67,8.31,17.67h-3.21l-1.5-3.27h-7.25l-1.5,3.27Zm5.82-5.87h5l-2.49-5.49Z" transform="translate(-263.13 -359.45)"></path><path class="cls-1" d="M468,490.51V473.67h10.73v2.73h-7.71v4h7.23v2.73h-7.23v4.64h7.88v2.73Z" transform="translate(-263.13 -359.45)"></path><path class="cls-1" d="M490.86,485.84a7.52,7.52,0,0,0,5.46,2.25c2,0,3.24-.94,3.24-2.08a2,2,0,0,0-.8-1.64,13.27,13.27,0,0,0-3-1.52c-2.9-1.23-4.47-2.56-4.47-5a3.86,3.86,0,0,1,1.59-3.26,6.46,6.46,0,0,1,4.06-1.23,7,7,0,0,1,4.08,1.16v3.06a5.86,5.86,0,0,0-4-1.47c-1.71,0-2.71.7-2.71,1.74-.09.56.42,1,.83,1.4a7.72,7.72,0,0,0,1.23.68l.8.36c.38.17.65.27.77.34a10.06,10.06,0,0,1,3.5,2.25,4.4,4.4,0,0,1,1.09,3.11,4.33,4.33,0,0,1-1.59,3.43,6.76,6.76,0,0,1-4.47,1.36,9.42,9.42,0,0,1-5.63-1.72Z" transform="translate(-263.13 -359.45)"></path><path class="cls-1" d="M517.49,490.51V476.4h-4.57v-2.73h12.16v2.73h-4.57v14.11Z" transform="translate(-263.13 -359.45)"></path><path class="cls-1" d="M537.08,490.51V473.67h3v6.57h8.09v-6.57h3v16.84h-3V483H540.1v7.54Z" transform="translate(-263.13 -359.45)"></path><path class="cls-1" d="M564.59,490.51V473.67h10.73v2.73h-7.71v4h7.23v2.73h-7.23v4.64h7.88v2.73Z" transform="translate(-263.13 -359.45)"></path><path class="cls-1" d="M591.4,490.51V476.4h-4.57v-2.73H599v2.73h-4.57v14.11Z" transform="translate(-263.13 -359.45)"></path><path class="cls-1" d="M611.09,490.51V473.67h3v16.84Z" transform="translate(-263.13 -359.45)"></path><path class="cls-1" d="M640.69,475.14v3.21a7.11,7.11,0,0,0-5.24-2.24,6,6,0,1,0,0,12,7.08,7.08,0,0,0,5.24-2.25V489a7.86,7.86,0,0,1-5.24,1.77,9,9,0,0,1-6.36-2.47,8.82,8.82,0,0,1,0-12.47,8.88,8.88,0,0,1,6.36-2.48A8,8,0,0,1,640.69,475.14Z" transform="translate(-263.13 -359.45)"></path><path class="cls-1" d="M653.07,485.84a7.52,7.52,0,0,0,5.46,2.25c2,0,3.24-.94,3.24-2.08a2,2,0,0,0-.8-1.64,13.27,13.27,0,0,0-3-1.52c-2.9-1.23-4.47-2.56-4.47-5a3.86,3.86,0,0,1,1.59-3.26,6.46,6.46,0,0,1,4.06-1.23,7,7,0,0,1,4.08,1.16v3.06a5.86,5.86,0,0,0-4-1.47c-1.71,0-2.7.7-2.7,1.74-.1.56.41,1,.82,1.4a8.18,8.18,0,0,0,1.23.68l.8.36c.38.17.65.27.77.34a10.06,10.06,0,0,1,3.5,2.25,4.4,4.4,0,0,1,1.09,3.11,4.33,4.33,0,0,1-1.59,3.43,6.74,6.74,0,0,1-4.47,1.36,9.44,9.44,0,0,1-5.63-1.72Z" transform="translate(-263.13 -359.45)"></path><path class="cls-1" d="M446.21,450.09V431.18L430,404h5.69l13.16,22.09,13-22.09h5.55l-16.07,27.18v18.91Z" transform="translate(-263.13 -359.45)"></path><path class="cls-1" d="M471.22,450.09l20.83-47.74L513,450.09h-5.62l-5-11.37H481.6l-5,11.37ZM483.66,434h16.66L492,414.38Z" transform="translate(-263.13 -359.45)"></path><path class="cls-1" d="M521.48,450.09l28.83-41.33H526.64V404H559.7l-28.83,41.33h27.91v4.76Z" transform="translate(-263.13 -359.45)"></path><path class="cls-1" d="M574.61,450.09V404h14.81c7.34,0,13.16,2.12,17.39,6.35s6.42,9.79,6.42,16.73-2.12,12.5-6.35,16.73-10.06,6.28-17.39,6.28Zm5.15-4.76h9.33c12.43,0,19-7.14,19-18.25s-6.55-18.32-19.05-18.32h-9.26Z" transform="translate(-263.13 -359.45)"></path><path class="cls-1" d="M620.51,450.09l20.84-47.74,20.89,47.74h-5.62l-5-11.37H630.9l-5,11.37ZM633,434h16.66l-8.33-19.58Z" transform="translate(-263.13 -359.45)"></path><path class="cls-1" d="M674.58,450.09V402.35l32.34,36.5V404h5.16v47.75l-32.34-36.51v34.85Z" transform="translate(-263.13 -359.45)"></path><path class="cls-1" d="M731.71,450.09V404h5.16v46.09Z" transform="translate(-263.13 -359.45)"></path><path class="cls-1" d="M379,476.87l-34.65-75.78q9.25-26.49,28.49-26.49c6.83,0,11.82,1.33,14.82,4l.67-.17,4-15.49c-2.49-2.33-6.82-3.49-12.65-3.49a28.21,28.21,0,0,0-21,9c-6,6-11.66,16.82-17.16,32.65l-12.11,35.34c-5.76,16.66-12.64,36.44-12.64,36.44l-21.49-55.79c-3.16-8.67-1.5-13.83,5.16-15.49v-.5h-35v.5c4.33.5,8,4.49,11,11.82L311.1,489.2q-9.24,26.48-28.48,26.48c-6.83,0-11.82-1.33-14.82-4l-.67.17-4,15.49c2.5,2.33,6.83,3.5,12.66,3.5a28.23,28.23,0,0,0,21-9c6-6,11.66-16.82,17.16-32.64H314c0-.1,0-.19,0-.29l5.87-17.13,3.45-10h32.44l4.39,11.39c3.16,8.66,1.5,13.82-5.17,15.49v.5h35v-.5C385.66,488.2,382,484.2,379,476.87Zm-54.73-17.72,14.42-41.74,16.08,41.74Z" transform="translate(-263.13 -359.45)"></path></svg> 